<svg enable-background="new 0 0 128 128" viewBox="0 0 128 128" xmlns="http://www.w3.org/2000/svg" xmlns:xlink="http://www.w3.org/1999/xlink"><linearGradient id="a" gradientTransform="matrix(0 1 -1 0 -338.26 -248.1667)" gradientUnits="userSpaceOnUse" x1="321.6843" x2="357.9523" y1="-356.7276" y2="-392.9956"><stop offset="0" stop-color="#bdbdbd"/><stop offset="1" stop-color="#9e9e9e"/></linearGradient><linearGradient id="b"><stop offset="0" stop-color="#9e9e9e"/><stop offset="1" stop-color="#bdbdbd"/></linearGradient><linearGradient id="c" gradientTransform="matrix(0 1 -1 0 -338.26 -248.1667)" gradientUnits="userSpaceOnUse" x1="301.1114" x2="266.4923" xlink:href="#b" y1="-446.5547" y2="-411.9356"/><linearGradient id="d" gradientTransform="matrix(.7071 .7071 -.7071 .7071 -50.6415 -417.9935)" gradientUnits="userSpaceOnUse" x1="426.652" x2="416.294" xlink:href="#b" y1="259.4767" y2="259.4767"/><path d="m19.7 108c-5.1-5.2-5.1-13.5 0-18.7l14.7-14.7c1.6-1.6 3.7-2.8 5.9-3.4s4.5-.6 6.6-.1c2.2.6 4.3 1.7 6 3.3.1.1.1.1.2.2 5.2 5.2 5.2 13.5 0 18.7l-14.7 14.7c-5.2 5.2-13.6 5.2-18.7 0zm41.6-41.6c-9.7-9.7-25.6-9.7-35.3 0l-14.6 14.7c-9.7 9.7-9.7 25.6 0 35.3s25.6 9.7 35.3 0l14.7-14.7c9.6-9.7 9.6-25.6-.1-35.3z" fill="url(#a)"/><path d="m43.7 62.1c5.9 0 11.4 2.3 15.5 6.4 8.6 8.6 8.6 22.5 0 31l-14.7 14.7c-4.1 4.1-9.6 6.4-15.5 6.4s-11.4-2.3-15.5-6.4c-8.6-8.6-8.6-22.5 0-31l14.7-14.7c4.1-4.1 9.6-6.4 15.5-6.4m-14.7 52.8c4.3 0 8.4-1.7 11.5-4.7l14.7-14.7c6.3-6.3 6.3-16.6 0-22.9l-.2-.2c-2-2-4.6-3.3-7.3-4-1.3-.3-2.6-.5-3.9-.5-1.4 0-2.9.2-4.2.6-2.7.7-5.2 2.2-7.2 4.2l-14.8 14.5c-6.3 6.3-6.3 16.6 0 22.9 3 3.1 7.1 4.8 11.4 4.8m14.7-55.8c-6.4 0-12.8 2.4-17.6 7.3l-14.7 14.7c-9.7 9.7-9.7 25.6 0 35.3 4.9 4.8 11.2 7.3 17.6 7.3s12.8-2.4 17.6-7.3l14.7-14.7c9.7-9.7 9.7-25.6 0-35.3-4.8-4.9-11.2-7.3-17.6-7.3zm-14.7 52.8c-3.4 0-6.8-1.3-9.3-3.9-5.1-5.2-5.1-13.5 0-18.7l14.7-14.7c1.6-1.6 3.7-2.8 5.9-3.4 1.1-.3 2.3-.5 3.5-.5 1.1 0 2.1.1 3.2.4 2.2.6 4.3 1.7 6 3.3.1.1.1.1.2.2 5.2 5.2 5.2 13.5 0 18.7l-14.8 14.7c-2.6 2.6-6 3.9-9.4 3.9z" fill="#424242" opacity=".2"/><path d="m74.9 52.9c-5.2-5.2-5.2-13.5 0-18.7l14.7-14.7c1.6-1.6 3.7-2.8 5.9-3.4s4.5-.6 6.6-.1c2.2.5 4.3 1.7 6 3.3l.2.2c5.2 5.1 5.2 13.5 0 18.7l-14.8 14.7c-5.1 5.1-13.5 5.1-18.6 0zm41.6-41.7c-9.7-9.7-25.6-9.7-35.3 0l-14.6 14.7c-9.7 9.7-9.7 25.6 0 35.3s25.6 9.7 35.3 0l14.7-14.7c9.6-9.7 9.6-25.6-.1-35.3z" fill="url(#c)"/><path d="m98.9 6.9c5.9 0 11.4 2.3 15.5 6.4s6.4 9.6 6.4 15.5-2.3 11.4-6.4 15.5l-14.7 14.7c-4.1 4.1-9.6 6.4-15.5 6.4s-11.4-2.2-15.5-6.4c-8.5-8.5-8.5-22.5 0-31l14.7-14.7c4.1-4.1 9.6-6.4 15.5-6.4m-14.7 52.8c4.3 0 8.4-1.7 11.5-4.7l14.7-14.7c6.3-6.3 6.3-16.6 0-22.9l-.2-.2c-2.1-2-4.6-3.3-7.3-4-1.3-.3-2.6-.5-3.9-.5-1.4 0-2.9.2-4.2.6-2.7.7-5.2 2.2-7.2 4.2l-14.9 14.6c-6.3 6.3-6.3 16.6 0 22.9 3.1 3.1 7.2 4.7 11.5 4.7m14.7-55.8c-6.4 0-12.8 2.4-17.6 7.3l-14.7 14.7c-9.7 9.7-9.7 25.6 0 35.3 4.8 4.9 11.2 7.3 17.6 7.3s12.8-2.4 17.6-7.3l14.7-14.7c9.7-9.7 9.7-25.6 0-35.3-4.8-4.8-11.2-7.3-17.6-7.3zm-14.7 52.8c-3.4 0-6.8-1.3-9.3-3.9-5.2-5.2-5.2-13.5 0-18.7l14.7-14.7c1.6-1.6 3.7-2.8 5.9-3.4 1.1-.3 2.3-.5 3.5-.5 1.1 0 2.1.1 3.2.4 2.2.5 4.3 1.7 6 3.3.1.1.1.1.2.2 5.2 5.1 5.2 13.5 0 18.7l-14.9 14.8c-2.5 2.6-5.9 3.8-9.3 3.8z" fill="#424242" opacity=".2"/><path d="m48 79.7c-2.1-2.1-2.1-5.6 0-7.7l24.4-24.4c2.1-2.1 5.6-2.1 7.7 0s2.1 5.6 0 7.7l-24.4 24.4c-2.1 2.1-5.6 2.1-7.7 0z" fill="url(#d)"/><path d="m76.3 49c.7 0 1.3.2 1.8.7 1 1 1 2.5 0 3.5l-24.5 24.4c-.5.5-1.1.7-1.8.7s-1.3-.2-1.8-.7c-1-1-1-2.5 0-3.5l24.4-24.4c.6-.4 1.2-.7 1.9-.7m0-3c-1.4 0-2.8.5-3.9 1.6l-24.4 24.4c-2.1 2.1-2.1 5.6 0 7.7 1.1 1.1 2.5 1.6 3.9 1.6s2.8-.5 3.9-1.6l24.4-24.4c2.1-2.1 2.1-5.6 0-7.7-1.1-1.1-2.5-1.6-3.9-1.6z" fill="#424242" opacity=".2"/></svg>